# xmcd
#
# Track frame offsets: 
#        150
#        23575
#        42024
#        63094
#        89444
#        110788
#        132736
#        148413
#        188485
#        207795
#        226054
#        241884
#        265389
#        291581
#
# Disc length: 4374 seconds
#
# Revision: 1
# Processed by: cddbd v1.5.2PL0 Copyright (c) Steve Scherf et al.
# Submitted via: ExactAudioCopy v1.1
#
DISCID=ce11140e
DTITLE=Tino Gonzales - A Heart Full Of Blues
DYEAR=1997
DGENRE=Blues
TTITLE0=Young Thing
TTITLE1=Talk About Love
TTITLE2=Piece Of Work
TTITLE3=Come Baby
TTITLE4=Big Boss Man
TTITLE5=Who's Been Talking
TTITLE6=Twine Time
TTITLE7=Texas
TTITLE8=Body And Fender Man
TTITLE9=Poverty
TTITLE10=Leave Me Alone
TTITLE11=It's A Rock n'Roll World
TTITLE12=Best Thing I Ever Had
TTITLE13=Midnight Blues
EXTD=
EXTT0=
EXTT1=
EXTT2=
EXTT3=
EXTT4=
EXTT5=
EXTT6=
EXTT7=
EXTT8=
EXTT9=
EXTT10=
EXTT11=
EXTT12=
EXTT13=
PLAYORDER=
